<?xml version="1.0" encoding="UTF-8"?>
<svg version="1.1" xmlns="http://www.w3.org/2000/svg" width="1024" height="1024">
<path d="M0 0 C337.92 0 675.84 0 1024 0 C1024 337.92 1024 675.84 1024 1024 C686.08 1024 348.16 1024 0 1024 C0 686.08 0 348.16 0 0 Z " fill="#EBEBEB" transform="translate(0,0)"/>
<path d="M0 0 C6.3697633 4.65834701 11.49984961 9.90010145 15 17 C15.31710937 17.61230469 15.63421875 18.22460938 15.9609375 18.85546875 C19.94033479 27.70871502 18.63858093 37.33323613 15.3125 46.1796875 C10.73973507 56.00568833 3.11642979 62.05289126 -6.8203125 66.16796875 C-10.71839797 67.18798374 -14.29848596 67.38392301 -18.3125 67.375 C-19.0650708 67.37338867 -19.8176416 67.37177734 -20.59301758 67.37011719 C-26.48259304 67.24024221 -30.97264781 66.1821482 -36 63 C-37.546875 62.13375 -37.546875 62.13375 -39.125 61.25 C-46.87681914 55.18335893 -50.92646818 48.22059545 -54 39 C-55.21571212 27.32640068 -53.81518186 18.88894226 -47 9 C-35.52235249 -4.6310523 -15.78496684 -9.08609974 0 0 Z " fill="#29292A" transform="translate(328,481)"/>
<path d="M0 0 C4.62295082 3.24590164 4.62295082 3.24590164 6 6 C8.78518047 4.82165442 10.51494326 3.54227266 12.8125 1.5 C18.40001353 -3.20016647 24.88681277 -3.46332796 31.9375 -3.3046875 C39.99697189 -2.50285229 45.36074942 0.5502788 50.52734375 6.70703125 C54.97901577 13.63841447 55.43574361 19.2326093 55.36328125 27.33203125 C55.36402901 28.94146858 55.36402901 28.94146858 55.36479187 30.5834198 C55.36246009 32.84005597 55.35278478 35.09669518 55.33618164 37.35327148 C55.3124594 40.81843068 55.31564372 44.2828264 55.32226562 47.74804688 C55.31669279 49.94271294 55.30958541 52.13737577 55.30078125 54.33203125 C55.30169266 55.37156448 55.30260406 56.41109772 55.30354309 57.48213196 C55.29401108 58.4404039 55.28447906 59.39867584 55.2746582 60.38598633 C55.26774712 61.65337395 55.26774712 61.65337395 55.26069641 62.94636536 C55 65 55 65 53 67 C50.46875 67.30078125 50.46875 67.30078125 47.5 67.3125 C46.5203125 67.32925781 45.540625 67.34601563 44.53125 67.36328125 C43.6959375 67.24339844 42.860625 67.12351562 42 67 C39.9139283 63.87089246 39.75038744 63.16534931 39.74462891 59.60791016 C39.73766998 58.72334137 39.73071106 57.83877258 39.72354126 56.92739868 C39.72453827 55.97424774 39.72553528 55.0210968 39.7265625 54.0390625 C39.70627281 52.02082779 39.68542201 50.00259867 39.6640625 47.984375 C39.64146018 44.802361 39.62499185 41.62056716 39.61914062 38.43847656 C39.60961801 35.36743355 39.57584162 32.29738315 39.5390625 29.2265625 C39.54663071 27.80290878 39.54663071 27.80290878 39.55435181 26.35049438 C39.49056548 22.06605858 39.40354127 19.65168221 37.10693359 15.94287109 C33.09928511 12.24728979 29.22814458 11.58415074 23.92578125 11.75390625 C20.94690397 12.13457414 19.27208009 13.05250278 17 15 C13.55134629 20.32236467 13.55936088 25.01224747 13.55859375 31.140625 C13.54538589 32.10401794 13.53217804 33.06741089 13.51856995 34.05999756 C13.47780977 37.12336186 13.45602774 40.18642642 13.4375 43.25 C13.41373254 46.32776605 13.38569188 49.40524914 13.34571838 52.48284912 C13.32130863 54.39473587 13.30649304 56.3067735 13.30210876 58.21881104 C13.29192215 59.08020691 13.28173553 59.94160278 13.27124023 60.82910156 C13.26696518 61.58821838 13.26269012 62.34733521 13.25828552 63.12945557 C13 65 13 65 11 67 C8.46875 67.265625 8.46875 67.265625 5.5 67.25 C4.5203125 67.25515625 3.540625 67.2603125 2.53125 67.265625 C0 67 0 67 -2 65 C-2.2515564 63.12945557 -2.2515564 63.12945557 -2.25537109 60.82910156 C-2.26233002 59.96770569 -2.26928894 59.10630981 -2.27645874 58.21881104 C-2.27546173 57.28550964 -2.27446472 56.35220825 -2.2734375 55.390625 C-2.29373413 53.41926523 -2.31458506 51.44791111 -2.3359375 49.4765625 C-2.3585074 46.36486057 -2.37499363 43.25338148 -2.38085938 40.14160156 C-2.39040067 37.14086439 -2.4242082 34.14113557 -2.4609375 31.140625 C-2.45589203 30.21542053 -2.45084656 29.29021606 -2.44564819 28.3369751 C-2.53080862 22.7251813 -3.23211935 19.4411219 -7 15 C-10.4621961 12.11483658 -13.48796884 11.46082135 -18.0078125 11.6484375 C-22.24749064 12.396616 -25.00343257 14.76508105 -27.64038086 18.03271484 C-29.58968751 22.28695672 -29.44081423 26.16103199 -29.44140625 30.7890625 C-29.45461411 31.72930267 -29.46782196 32.66954285 -29.48143005 33.63827515 C-29.52224402 36.63388066 -29.54398056 39.62917969 -29.5625 42.625 C-29.58628272 45.62786874 -29.61437226 48.6304487 -29.65428162 51.63314819 C-29.67864859 53.49943978 -29.69349904 55.36588484 -29.69789124 57.23233032 C-29.70807785 58.0768576 -29.71826447 58.92138489 -29.72875977 59.79150391 C-29.73303482 60.53365143 -29.73730988 61.27579895 -29.74171448 62.04043579 C-30 64 -30 64 -32 67 C-34.8203125 67.29296875 -34.8203125 67.29296875 -38.125 67.1875 C-39.76855469 67.14689453 -39.76855469 67.14689453 -41.4453125 67.10546875 C-42.70988281 67.05326172 -42.70988281 67.05326172 -44 67 C-45.40321331 64.19357338 -45.12725084 61.86933084 -45.12939453 58.73022461 C-45.13254669 57.41223373 -45.13569885 56.09424286 -45.13894653 54.73631287 C-45.13715689 53.29165616 -45.13510597 51.84699975 -45.1328125 50.40234375 C-45.13348577 48.92786137 -45.13445599 47.4533791 -45.13571167 45.97889709 C-45.13718708 42.8878575 -45.13503881 39.79684679 -45.13037109 36.70581055 C-45.1246689 32.7353508 -45.12795689 28.76495858 -45.13394356 24.7945013 C-45.13754914 21.74999987 -45.13641069 18.70551456 -45.13381577 15.66101265 C-45.13314675 14.1965185 -45.13397405 12.7320229 -45.13629532 11.26753044 C-45.1388223 9.22514752 -45.13429088 7.18275948 -45.12939453 5.14038086 C-45.12859894 3.97615097 -45.12780334 2.81192108 -45.12698364 1.6124115 C-45 -1 -45 -1 -44 -2 C-42.19072719 -2.12487758 -40.37603893 -2.17570846 -38.5625 -2.1875 C-37.57378906 -2.20167969 -36.58507812 -2.21585937 -35.56640625 -2.23046875 C-33 -2 -33 -2 -31 0 C-31 0.99 -31 1.98 -31 3 C-30.45730469 2.65066406 -29.91460937 2.30132812 -29.35546875 1.94140625 C-28.64003906 1.48636719 -27.92460937 1.03132813 -27.1875 0.5625 C-26.47980469 0.11003906 -25.77210938 -0.34242188 -25.04296875 -0.80859375 C-17.44983642 -5.23671107 -7.54674266 -3.70717183 0 0 Z " fill="#2C2B2D" transform="translate(400,480)"/>
<path d="M0 0 C7.77528805 4.44109335 13.27084581 11.44948479 16 20 C16.265625 23.4453125 16.265625 23.4453125 16.25 27.125 C16.25773438 28.95417969 16.25773438 28.95417969 16.265625 30.8203125 C16 34 16 34 14 37 C11.86129761 37.36076355 11.86129761 37.36076355 9.18310547 37.34057617 C8.18221893 37.34034958 7.1813324 37.34012299 6.15011597 37.33988953 C5.06674957 37.32440567 3.98338318 37.30892181 2.8671875 37.29296875 C1.20672897 37.28660149 1.20672897 37.28660149 -0.48727417 37.28010559 C-4.0334271 37.26327214 -7.57901797 37.2256108 -11.125 37.1875 C-13.52473139 37.17245922 -15.92447167 37.15876977 -18.32421875 37.14648438 C-24.21633859 37.11335338 -30.10812915 37.06310777 -36 37 C-35.40392671 38.27724589 -34.79776421 39.54978583 -34.1875 40.8203125 C-33.85105469 41.52945801 -33.51460937 42.23860352 -33.16796875 42.96923828 C-30.68336198 47.28925481 -26.56817666 50.12378458 -22 52 C-13.29207513 53.25781137 -7.12529754 51.73936293 0.34375 47.21484375 C3.47656801 45.78204022 4.7846239 45.89369263 8 47 C10.375 48.75 10.375 48.75 12 51 C12.1875 53.375 12.1875 53.375 11 56 C5.46293356 62.32107585 -2.64363861 66.34459911 -11 67 C-12.29357422 67.11214844 -12.29357422 67.11214844 -13.61328125 67.2265625 C-23.9841108 67.73770585 -33.1674297 64.33028599 -41.25 57.796875 C-49.12921169 49.706613 -51.52414366 39.69617092 -51.57226562 28.70751953 C-51.28258754 19.10469098 -47.23114084 10.68208698 -40.3125 3.9375 C-28.01940106 -5.3768865 -13.79754116 -6.92032924 0 0 Z " fill="#2A292B" transform="translate(685,481)"/>
<path d="M0 0 C0.87785156 0.01289063 1.75570312 0.02578125 2.66015625 0.0390625 C4.9375 0.375 4.9375 0.375 6.9375 2.375 C7.2159729 4.70352173 7.2159729 4.70352173 7.25634766 7.65087891 C7.27621735 8.7518692 7.29608704 9.8528595 7.31655884 10.98721313 C7.32811005 12.17994843 7.33966125 13.37268372 7.3515625 14.6015625 C7.37092865 15.81951508 7.3902948 17.03746765 7.4102478 18.29232788 C7.47018215 22.1948133 7.51648471 26.09732799 7.5625 30 C7.60066699 32.6406381 7.63971795 35.28126357 7.6796875 37.921875 C7.77589504 44.40613826 7.86090176 50.89047708 7.9375 57.375 C9.66994774 55.5017968 11.40004196 53.62650606 13.12890625 51.75 C13.61218384 51.22792969 14.09546143 50.70585937 14.59338379 50.16796875 C18.57628774 45.83937879 22.30062224 41.35253617 25.96484375 36.75 C31.13736921 30.52248419 31.13736921 30.52248419 34.62890625 29.87890625 C36.05009766 29.90791016 36.05009766 29.90791016 37.5 29.9375 C38.45003906 29.93878906 39.40007813 29.94007813 40.37890625 29.94140625 C42.9375 30.375 42.9375 30.375 44.83984375 31.58984375 C45.9375 33.375 45.9375 33.375 45.80078125 35.84375 C44.89421269 38.50192389 44.02796036 39.8377675 42.125 41.875 C41.50882813 42.5453125 40.89265625 43.215625 40.2578125 43.90625 C39.49210938 44.7209375 38.72640625 45.535625 37.9375 46.375 C36.89204621 47.50932754 35.84786617 48.64482981 34.8046875 49.78125 C31.8583657 52.98796472 28.90031834 56.18352409 25.9375 59.375 C27.22133953 62.91059185 28.72094784 65.70466038 30.984375 68.703125 C31.5825 69.50363281 32.180625 70.30414062 32.796875 71.12890625 C33.42078125 71.95261719 34.0446875 72.77632812 34.6875 73.625 C37.12358781 76.86107428 39.5405724 80.10981102 41.9375 83.375 C42.54013672 84.18001953 43.14277344 84.98503906 43.76367188 85.81445312 C44.32119141 86.59240234 44.87871094 87.37035156 45.453125 88.171875 C45.95618164 88.86120117 46.45923828 89.55052734 46.97753906 90.26074219 C48.24142416 93.04437518 47.88357254 94.51073282 46.9375 97.375 C44.57161252 99.74088748 43.64604951 99.88547821 40.375 100.1875 C36.82706315 100.10096495 35.3570842 99.73210804 32.62890625 97.41015625 C30.23189695 94.50041768 28.04690109 91.49495545 25.9375 88.375 C24.61316833 86.44349634 23.28463198 84.51538531 21.9453125 82.59423828 C21.07633258 81.33929501 20.22290399 80.07341568 19.38671875 78.79638672 C18.09792344 76.83670791 18.09792344 76.83670791 15.9375 74.375 C12.06490935 74.01863023 12.06490935 74.01863023 9.7265625 75.7734375 C7.04332009 79.67527035 7.34016098 83.36678544 7.3125 88 C7.28703404 89.72149869 7.25356683 91.44290329 7.2109375 93.1640625 C7.20497559 93.92412598 7.19901367 94.68418945 7.19287109 95.46728516 C6.9375 97.375 6.9375 97.375 4.9375 99.375 C2.9140625 99.67578125 2.9140625 99.67578125 0.5625 99.6875 C-0.20835937 99.70425781 -0.97921875 99.72101563 -1.7734375 99.73828125 C-4.83199022 99.25287954 -5.92940236 98.65964546 -8.0625 96.375 C-8.45905618 93.34743658 -8.59894403 90.68202668 -8.56420898 87.65258789 C-8.56961197 86.76124649 -8.57501495 85.86990509 -8.58058167 84.95155334 C-8.59310687 81.99991833 -8.57655145 79.04925162 -8.55859375 76.09765625 C-8.55874866 74.04886321 -8.56023637 72.00006987 -8.56300354 69.95127869 C-8.56438928 65.65464341 -8.55180119 61.35834123 -8.52905273 57.06176758 C-8.50068563 51.55234735 -8.50339832 46.04348155 -8.51614285 40.53402042 C-8.52309644 36.30211142 -8.51531406 32.07033067 -8.50288582 27.83843803 C-8.49836696 25.80704681 -8.4980383 23.77564183 -8.50195122 21.74424934 C-8.50485981 18.90481457 -8.48837249 16.06614479 -8.46655273 13.22680664 C-8.47105438 12.38563293 -8.47555603 11.54445923 -8.48019409 10.67779541 C-8.43726049 7.31725378 -8.31191481 4.83303985 -6.68788147 1.85057068 C-4.4391981 -0.1908524 -2.99525251 -0.09704795 0 0 Z " fill="#29282A" transform="translate(585.0625,447.625)"/>
<path d="M0 0 C0.85207031 -0.07476562 1.70414063 -0.14953125 2.58203125 -0.2265625 C6.22497518 0.96408484 7.13334219 2.93885536 8.9753418 6.20019531 C11.11517392 10.48072152 12.93067863 14.86322174 14.6875 19.3125 C15.07478271 20.27623535 15.46206543 21.2399707 15.86108398 22.23291016 C18.70634941 29.33624603 21.4977121 36.46124327 24.1875 43.625 C27.58798499 36.16910369 30.67765679 28.59586066 33.75 21 C39.55569948 6.66839378 39.55569948 6.66839378 42.1875 0.625 C44.14516281 0.54417906 46.10376728 0.48589222 48.0625 0.4375 C49.69832031 0.38529297 49.69832031 0.38529297 51.3671875 0.33203125 C52.29789063 0.42871094 53.22859375 0.52539062 54.1875 0.625 C56.1875 3.625 56.1875 3.625 55.9453125 6.45581055 C55.20212887 9.56382173 54.25800329 12.37024113 53.0625 15.33203125 C52.61140869 16.45625488 52.16031738 17.58047852 51.69555664 18.73876953 C50.9490686 20.56964111 50.9490686 20.56964111 50.1875 22.4375 C49.6630226 23.73539011 49.13886135 25.03340802 48.61499023 26.33154297 C42.17371941 42.25043395 35.58515232 58.11148061 28.96255493 73.95567322 C27.51230227 77.4264125 26.07077477 80.89882246 24.67919922 84.39355469 C24.24752441 85.46766602 23.81584961 86.54177734 23.37109375 87.6484375 C23.0145874 88.55255371 22.65808105 89.45666992 22.29077148 90.38818359 C21.16943192 92.66163195 20.14985596 94.03516232 18.1875 95.625 C16.03125 96.0234375 16.03125 96.0234375 13.6875 96 C12.52734375 96.01160156 12.52734375 96.01160156 11.34375 96.0234375 C9.1875 95.625 9.1875 95.625 7.34375 94.5390625 C5.87445075 92.10677658 6.07180267 90.42255659 6.60058594 87.68066406 C8.01049981 82.74244659 10.32872529 78.1254798 12.48046875 73.4765625 C12.84011719 72.66703125 13.19976563 71.8575 13.5703125 71.0234375 C13.90434082 70.29817871 14.23836914 69.57291992 14.58251953 68.82568359 C15.81984037 64.32479172 13.78606066 60.33175502 12.0703125 56.1796875 C11.63299805 55.11508301 11.19568359 54.05047852 10.74511719 52.95361328 C10.27235352 51.8139209 9.79958984 50.67422852 9.3125 49.5 C8.82942383 48.32034668 8.34634766 47.14069336 7.84863281 45.92529297 C5.51763252 40.23774254 3.16594297 34.55994686 0.77157593 28.89877319 C-0.01210168 27.04247615 -0.79038086 25.18401091 -1.56689453 23.32470703 C-2.54902165 20.97728535 -3.54186796 18.63431407 -4.54638672 16.29638672 C-5.21178467 14.69947998 -5.21178467 14.69947998 -5.890625 13.0703125 C-6.28668945 12.13719238 -6.68275391 11.20407227 -7.09082031 10.24267578 C-7.91737354 7.24460279 -7.77107176 5.5641594 -6.8125 2.625 C-4.37133595 0.18383595 -3.38176487 0.19266427 0 0 Z " fill="#2A2A2B" transform="translate(513.8125,477.375)"/>
<path d="M0 0 C3.44600375 2.06011093 5.46088196 3.58976044 7.71875 6.9765625 C10.77207551 7.26599364 13.6239457 7.36174619 16.67895508 7.32958984 C17.60755844 7.33175003 18.5361618 7.33391022 19.49290466 7.33613586 C21.51400096 7.33922928 23.53511594 7.33559805 25.5561924 7.32612228 C28.75460386 7.31243012 31.95239159 7.31879437 35.15080261 7.33096313 C44.24583952 7.36199008 53.34073402 7.35705191 62.43579102 7.33691406 C67.99496074 7.32600244 73.55366334 7.33917716 79.11276817 7.36680984 C81.2326497 7.37225592 83.35257779 7.36817252 85.47242165 7.35441208 C88.43891977 7.33538475 91.40388988 7.34675139 94.37036133 7.36474609 C95.68518997 7.34473793 95.68518997 7.34473793 97.02658081 7.32432556 C101.41296347 7.3835065 103.18269912 7.56276026 106.76396179 10.32730103 C108.71875 12.9765625 108.71875 12.9765625 109.34375 15.9765625 C108.48067272 20.11933345 107.06351597 21.39801237 103.71875 23.9765625 C100.58451047 24.69018663 97.5291763 24.62670491 94.32617188 24.57250977 C93.38737686 24.5765683 92.44858185 24.58062683 91.4813385 24.58480835 C89.44719939 24.59032053 87.41300371 24.58433131 85.37892151 24.56814766 C82.1590681 24.54274443 78.94049587 24.54752017 75.72058105 24.56004333 C68.88649664 24.58079577 62.05280833 24.56110051 55.21875 24.5390625 C47.29905931 24.51796516 39.37978014 24.51337255 31.46009827 24.53956413 C28.28849553 24.54292792 25.1176767 24.52169252 21.94616699 24.49916077 C20.00121896 24.50167194 18.05627191 24.50523188 16.11132812 24.51000977 C15.23013809 24.49712418 14.34894806 24.48423859 13.4410553 24.47096252 C8.20176648 24.51390725 5.58451212 25.11957041 1.71875 28.9765625 C-2.65946282 31.16566891 -8.81648366 30.7231888 -13.421875 29.328125 C-17.99131243 27.00367205 -20.69498281 23.75413645 -22.28125 18.9765625 C-23.20250463 13.61049174 -22.64172208 9.05524429 -19.6015625 4.484375 C-14.55357008 -1.28049208 -7.07493279 -3.17402807 0 0 Z " fill="#8550B5" transform="translate(595.28125,566.0234375)"/>
<path d="M0 0 C1.45212891 -0.04253906 1.45212891 -0.04253906 2.93359375 -0.0859375 C5.5625 0.375 5.5625 0.375 6.99194336 1.86425781 C9.20796668 5.40686372 10.73120949 9.15070118 12.3203125 13.0078125 C12.6688327 13.84085907 13.01735291 14.67390564 13.37643433 15.53219604 C14.48542024 18.1859575 15.58664852 20.84285522 16.6875 23.5 C17.79719304 26.16355141 18.90843579 28.82645173 20.01998901 31.48922729 C20.71034756 33.14464758 21.39929406 34.80065757 22.08670044 36.45730591 C23.73243781 40.45759212 23.73243781 40.45759212 25.5625 44.375 C26.03816406 42.96927734 26.03816406 42.96927734 26.5234375 41.53515625 C29.71421134 32.24044612 33.18635053 23.07111825 36.8125 13.9375 C37.24868652 12.82963135 37.68487305 11.7217627 38.13427734 10.58032227 C38.75616943 9.02655884 38.75616943 9.02655884 39.390625 7.44140625 C39.7609082 6.51271729 40.13119141 5.58402832 40.51269531 4.62719727 C41.5625 2.375 41.5625 2.375 43.5625 0.375 C45.83984375 0.07421875 45.83984375 0.07421875 48.5 0.0625 C49.81291016 0.03736328 49.81291016 0.03736328 51.15234375 0.01171875 C53.5625 0.375 53.5625 0.375 55.44140625 1.45703125 C56.8699856 3.90104679 56.66300369 5.60843333 56.12841797 8.33886719 C55.00502669 12.38074951 53.30349034 16.16291748 51.625 20 C50.7231295 22.11181845 49.8250405 24.22525381 48.9296875 26.33984375 C48.67827499 26.93326065 48.42686249 27.52667755 48.16783142 28.13807678 C44.05695207 37.88935508 40.17371193 47.73489807 36.25 57.5625 C35.46559345 59.52360717 34.68116991 61.48470755 33.89672852 63.44580078 C33.1433918 65.33235672 32.39005521 67.21891271 31.63671875 69.10546875 C31.27487991 70.00839661 30.91304108 70.91132446 30.54023743 71.84161377 C28.99220386 75.7180488 27.4643103 79.59478289 26.04931641 83.52197266 C25.6269873 84.68647949 25.2046582 85.85098633 24.76953125 87.05078125 C24.43026611 88.02571533 24.09100098 89.00064941 23.74145508 90.00512695 C22.39299463 92.71573071 21.14561223 93.83753815 18.5625 95.375 C16.30859375 95.7734375 16.30859375 95.7734375 14 95.75 C12.85337891 95.76160156 12.85337891 95.76160156 11.68359375 95.7734375 C9.5625 95.375 9.5625 95.375 7.72265625 94.2265625 C6.5625 92.375 6.5625 92.375 6.62109375 89.78125 C8.10810859 84.40084777 10.46036567 79.43520471 12.76757812 74.36328125 C13.12400391 73.55246094 13.48042969 72.74164062 13.84765625 71.90625 C14.17644775 71.17986328 14.50523926 70.45347656 14.84399414 69.70507812 C16.76845541 63.46414765 14.85635299 58.91354624 12.30859375 53.2578125 C11.97005875 52.4829953 11.63152374 51.7081781 11.2827301 50.90988159 C10.19871104 48.43527604 9.09971913 45.96766244 8 43.5 C7.28740257 41.88065192 6.57580505 40.26086344 5.86523438 38.640625 C1.72345556 29.20761828 1.72345556 29.20761828 -2.52685547 19.82324219 C-2.85386948 19.10272675 -3.18088348 18.3822113 -3.51780701 17.63986206 C-4.12857788 16.29507381 -4.74797191 14.95415276 -5.37782288 13.61819458 C-7.13305495 9.72585198 -7.93282494 6.64031971 -7.4375 2.375 C-4.84349494 -0.21900506 -3.60565384 0.04788385 0 0 Z " fill="#2A292B" transform="translate(711.4375,477.625)"/>
<path d="M0 0 C10.11549925 6.45706036 10.11549925 6.45706036 12 11.875 C12 15 12 15 10.0625 17.875 C5.84975323 20.79813041 4.05041618 20.80165336 -1 20 C-3 17.75 -3 17.75 -5 15 C-9.49908648 11.76272628 -14.09313231 10.26148287 -19.6328125 10.55859375 C-25.08541701 11.57533353 -30.07160031 13.73181363 -33.70703125 18.0078125 C-37.86528006 24.50282937 -39.07544772 30.55369597 -37.57421875 38.15625 C-35.62329126 44.38006775 -31.57195337 47.87711494 -26.07421875 51.14453125 C-20.32247238 53.51672043 -13.41337318 52.39037124 -7.8046875 50.0703125 C-5.77173136 48.8646199 -4.45013052 47.50467908 -2.875 45.75 C0 43 0 43 3.0625 42.875 C6.49300289 44.18880962 8.57573978 45.20842763 11 48 C11.3125 51.3125 11.3125 51.3125 10 55 C4.72558365 61.35055671 -2.92331513 65.45340077 -11 67 C-22.40015927 67.8986612 -32.15280653 67.30239982 -41.5625 60.015625 C-48.72693626 53.36966768 -53.58239224 45.26411634 -54.23828125 35.42578125 C-54.45174541 27.43639979 -54.33633638 20.98631973 -50 14 C-49.4225 12.96875 -48.845 11.9375 -48.25 10.875 C-36.41762043 -4.24415167 -17.29123827 -9.17895278 0 0 Z " fill="#292829" transform="translate(256,481)"/>
<path d="M0 0 C4.84541853 3.39713228 4.84541853 3.39713228 5.625 6.4375 C4.70634921 10.20396825 3.08661637 11.7185879 0 14 C-3.18897327 13.93356306 -5.36274014 13.29531554 -8.2421875 11.9609375 C-11.64264827 10.7760744 -14.52910733 10.69895189 -18.125 10.6875 C-19.34445312 10.67074219 -20.56390625 10.65398437 -21.8203125 10.63671875 C-24.95398465 10.73357406 -24.95398465 10.73357406 -26.90234375 12.36328125 C-28.49705855 14.7411656 -28.48922896 16.20440596 -28 19 C-25.33335883 21.39833742 -22.9686382 22.49793755 -19.515625 23.359375 C-18.24126587 23.69678711 -18.24126587 23.69678711 -16.94116211 24.04101562 C-16.05307861 24.27498047 -15.16499512 24.50894531 -14.25 24.75 C-5.15365667 27.31486526 0.51729654 29.99361378 6 37.875 C8.14775175 44.58672422 7.56785623 50.59084371 4.46875 56.921875 C0.88794339 61.98833542 -5.17812607 65.15403997 -11 67 C-13.75881038 67.24259478 -16.36824446 67.38112272 -19.125 67.375 C-19.87692627 67.37338867 -20.62885254 67.37177734 -21.40356445 67.37011719 C-27.85191442 67.2292602 -33.20968169 65.91026433 -39 63 C-39.64839844 62.69964844 -40.29679688 62.39929688 -40.96484375 62.08984375 C-44.21590626 60.32279566 -44.98597219 59.04364206 -46.125 55.5 C-46 52 -46 52 -44.4375 49.5625 C-41.15754765 47.45996644 -39.87241314 47.35459781 -36 48 C-34.42114464 48.80191423 -32.86002388 49.63917451 -31.3125 50.5 C-25.81825281 53.4214124 -21.12857188 53.87691784 -15 53 C-11.77556328 52.20661039 -11.77556328 52.20661039 -10 50 C-9.16666667 46.5 -9.16666667 46.5 -10 43 C-13.65016856 40.24044558 -17.42173048 39.19044851 -21.8125 38.0625 C-30.62226593 35.62046237 -36.59231559 33.53798433 -42 26 C-44.50121865 20.9975627 -43.83769942 12.97736539 -42.3515625 7.6953125 C-39.53214215 2.27335029 -34.68751546 -0.94932523 -29.15234375 -3.11328125 C-19.39665939 -5.85744525 -9.14679078 -4.02657637 0 0 Z " fill="#2B2A2B" transform="translate(816,481)"/>
<path d="M0 0 C0.81082031 -0.01611328 1.62164062 -0.03222656 2.45703125 -0.04882812 C3.23691406 -0.04947266 4.01679688 -0.05011719 4.8203125 -0.05078125 C5.88016357 -0.05525269 5.88016357 -0.05525269 6.96142578 -0.05981445 C9.43565638 0.42158407 10.32541231 1.36450641 11.875 3.3125 C12.2734375 5.25 12.2734375 5.25 12.25 7.3125 C12.26160156 8.3334375 12.26160156 8.3334375 12.2734375 9.375 C11.73195557 12.0080886 11.11973643 12.81294247 8.875 14.3125 C5.6953125 14.6484375 5.6953125 14.6484375 2 14.6875 C-3.49699406 14.98266495 -3.49699406 14.98266495 -8.4375 17.25 C-10.78735417 21.51455015 -11.02222728 25.50086791 -11.125 30.3125 C-10.14917969 30.26609375 -9.17335938 30.2196875 -8.16796875 30.171875 C-6.25951172 30.11773437 -6.25951172 30.11773437 -4.3125 30.0625 C-3.04792969 30.01609375 -1.78335938 29.9696875 -0.48046875 29.921875 C2.875 30.3125 2.875 30.3125 4.8359375 32.1015625 C6.39483544 35.41861601 5.71456492 37.82507648 4.875 41.3125 C2.875 43.3125 2.875 43.3125 -0.3828125 43.5078125 C-2.29707031 43.47300781 -2.29707031 43.47300781 -4.25 43.4375 C-6.17199219 43.41042969 -6.17199219 43.41042969 -8.1328125 43.3828125 C-9.12023437 43.35960937 -10.10765625 43.33640625 -11.125 43.3125 C-11.12055878 43.98457489 -11.11611755 44.65664978 -11.11154175 45.34909058 C-11.06740366 52.32401408 -11.03717333 59.29889813 -11.01513672 66.27392578 C-11.00505936 68.87941091 -10.9913973 71.48488469 -10.97412109 74.09033203 C-10.94994898 77.82847899 -10.9385344 81.56647685 -10.9296875 85.3046875 C-10.91936493 86.47554901 -10.90904236 87.64641052 -10.89840698 88.85275269 C-10.89825592 89.93372223 -10.89810486 91.01469177 -10.89794922 92.12841797 C-10.893508 93.08328094 -10.88906677 94.03814392 -10.88449097 95.02194214 C-11.125 97.3125 -11.125 97.3125 -13.125 99.3125 C-15.65625 99.61328125 -15.65625 99.61328125 -18.625 99.625 C-19.6046875 99.64175781 -20.584375 99.65851563 -21.59375 99.67578125 C-22.4290625 99.55589844 -23.264375 99.43601562 -24.125 99.3125 C-26.34217015 95.98674478 -26.37043438 94.9764376 -26.35205078 91.10668945 C-26.35182419 89.51537956 -26.35182419 89.51537956 -26.35159302 87.891922 C-26.34127045 86.74809555 -26.33094788 85.6042691 -26.3203125 84.42578125 C-26.3174826 83.25363571 -26.31465271 82.08149017 -26.31173706 80.87382507 C-26.30052753 77.12411357 -26.27542128 73.37463951 -26.25 69.625 C-26.23997121 67.0852899 -26.23084519 64.54557607 -26.22265625 62.00585938 C-26.20058567 55.77465835 -26.16710039 49.54359614 -26.125 43.3125 C-27.40375 43.35375 -28.6825 43.395 -30 43.4375 C-32.1796875 43.5078125 -32.1796875 43.5078125 -34.125 43.3125 C-36.55022207 40.88727793 -36.42129254 40.1404321 -36.4375 36.8125 C-36.46263672 35.62140625 -36.46263672 35.62140625 -36.48828125 34.40625 C-36.36839844 33.7153125 -36.24851562 33.024375 -36.125 32.3125 C-32.4808226 29.8830484 -30.41258728 30.15070425 -26.125 30.3125 C-26.17140625 29.56226563 -26.2178125 28.81203125 -26.265625 28.0390625 C-26.52205261 20.76750823 -26.12047798 14.5672594 -22.125 8.3125 C-15.57761768 1.72411111 -9.02864422 -0.03623051 0 0 Z " fill="#2C2C2D" transform="translate(497.125,447.6875)"/>
<path d="M0 0 C6.14111792 3.33839588 9.62809905 8.50929715 11.8125 15.0625 C12.37033362 22.0354203 10.66839148 27.796131 7.25 33.8125 C2.70915185 38.00405214 -3.01824628 41.30127603 -9.3125 41.5625 C-17.33870938 40.52686008 -21.53145093 38.38689411 -26.7421875 32.09765625 C-30.86482 26.292544 -30.90615932 21.06044513 -30.1875 14.0625 C-28.09739946 6.80652596 -23.55301261 3.23138591 -17.375 -0.75 C-11.16097595 -3.06502857 -6.06956459 -2.63775063 0 0 Z " fill="#E7E7E7" transform="translate(319.1875,492.9375)"/>
<path d="M0 0 C6.61397864 3.77941636 11.71668281 9.63342373 14.53515625 16.8046875 C15.65158485 22.07723264 15.51680513 27.65744304 15 33 C14.34 33.99 13.68 34.98 13 36 C11.01315308 36.36076355 11.01315308 36.36076355 8.55029297 36.34057617 C7.62948944 36.34034958 6.70868591 36.34012299 5.75997925 36.33988953 C4.76410797 36.32440567 3.76823669 36.30892181 2.7421875 36.29296875 C1.72399933 36.28872391 0.70581116 36.28447906 -0.3432312 36.28010559 C-3.60408673 36.26327579 -6.86433041 36.22561546 -10.125 36.1875 C-12.33202234 36.17245874 -14.53905434 36.15876937 -16.74609375 36.14648438 C-22.16427223 36.1133583 -27.58209242 36.06311653 -33 36 C-32.34 35.01 -31.68 34.02 -31 33 C-31.66 32.34 -32.32 31.68 -33 31 C-32.67 30.34 -32.34 29.68 -32 29 C-32.99 28.34 -33.98 27.68 -35 27 C-35 26.34 -35 25.68 -35 25 C-35.66 24.67 -36.32 24.34 -37 24 C-35.30580846 17.92914698 -32.99022349 14.53413061 -28 10.6875 C-22.96378291 8.04483985 -17.51443347 8.13083764 -12 9 C-8.03374507 10.69268518 -5.03272554 12.96727446 -2 16 C-1.67 14.741875 -1.34 13.48375 -1 12.1875 C-0.7215625 11.12595703 -0.7215625 11.12595703 -0.4375 10.04296875 C0.11411075 7.46714355 0.11218747 5.42381932 -0.5625 2.875 C-0.706875 2.25625 -0.85125 1.6375 -1 1 C-0.67 0.67 -0.34 0.34 0 0 Z " fill="#2C2B2C" transform="translate(686,482)"/>
<path d="M0 0 C15.84 0 31.68 0 48 0 C48 0.33 48 0.66 48 1 C44.37 1.33 40.74 1.66 37 2 C37.66 3.65 38.32 5.3 39 7 C39 7.99 39 8.98 39 10 C30.75606127 14.99092507 23.70145923 17.68886659 14 16 C8.32258966 13.82976411 4.39779276 9.94224401 1 5 C0.67 3.35 0.34 1.7 0 0 Z " fill="#E6E5E6" transform="translate(649,518)"/>
<path d="M0 0 C4.46565061 2.57922624 7.21382018 5.52798608 9.58984375 10.08203125 C9.58984375 11.07203125 9.58984375 12.06203125 9.58984375 13.08203125 C-2.29015625 13.08203125 -14.17015625 13.08203125 -26.41015625 13.08203125 C-25.16189676 6.84073381 -23.3831225 4.6028594 -18.41015625 0.76953125 C-12.80792529 -2.17013403 -5.86229152 -2.23280147 0 0 Z " fill="#E6E5E8" transform="translate(676.41015625,491.91796875)"/>
<path d="M0 0 C0.8125 1.6875 0.8125 1.6875 1 4 C-0.98332628 6.71984707 -2.61067218 8.68230338 -5.99732971 9.45672798 C-8.47507471 9.62785659 -10.90917517 9.63796668 -13.39257812 9.59594727 C-14.33137314 9.6000058 -15.27016815 9.60406433 -16.2374115 9.60824585 C-18.27155061 9.61375803 -20.30574629 9.60776881 -22.33982849 9.59158516 C-25.5596819 9.56618193 -28.77825413 9.57095767 -31.99816895 9.58348083 C-38.83225336 9.60423327 -45.66594167 9.58453801 -52.5 9.5625 C-60.41969069 9.54140266 -68.33896986 9.53681005 -76.25865173 9.56300163 C-79.43025447 9.56636542 -82.6010733 9.54513002 -85.77258301 9.52259827 C-87.71753104 9.52510944 -89.66247809 9.52866938 -91.60742188 9.53344727 C-92.48861191 9.52056168 -93.36980194 9.50767609 -94.2776947 9.49440002 C-99.62106956 9.53819791 -101.92393344 10.29675958 -106 14 C-106.99 13.67 -107.98 13.34 -109 13 C-104.92890326 8.70884398 -103.04447062 7.08448 -97.00816345 6.83505249 C-95.29839173 6.81130995 -93.58853991 6.79298402 -91.87866211 6.77880859 C-90.94509384 6.7673027 -90.01152557 6.75579681 -89.04966736 6.74394226 C-85.95892641 6.70721189 -82.86816477 6.67759404 -79.77734375 6.6484375 C-77.63407598 6.62532732 -75.49081121 6.60193704 -73.34754944 6.57827759 C-68.85436579 6.52980913 -64.36116392 6.48487767 -59.86791992 6.44238281 C-54.09831327 6.38751368 -48.32884647 6.32369127 -42.55936337 6.25720787 C-38.13374785 6.2072236 -33.70809326 6.16206143 -29.28241158 6.11836624 C-27.15444915 6.09675131 -25.02650181 6.07359668 -22.89857292 6.0489006 C-19.92971975 6.01514906 -16.96087734 5.98789578 -13.99194336 5.96240234 C-12.66329254 5.94533989 -12.66329254 5.94533989 -11.30780029 5.92793274 C-5.22850744 5.88574628 -5.22850744 5.88574628 -3 7 C-3.495 5.515 -3.495 5.515 -4 4 C-3.34 4 -2.68 4 -2 4 C-2 3.34 -2 2.68 -2 2 C-1.34 2 -0.68 2 0 2 C0 1.34 0 0.68 0 0 Z " fill="#8769AF" transform="translate(703,581)"/>
<path d="M0 0 C2.09749995 2.35968744 2.96905704 3.54616994 3.1875 6.75 C3.125625 7.4925 3.06375 8.235 3 9 C2.67 9 2.34 9 2 9 C1.95372931 19.91768029 1.91815767 30.83533738 1.89637566 41.75309563 C1.8859232 46.82224863 1.87173743 51.89133473 1.84912109 56.96044922 C1.82744472 61.84929185 1.8154424 66.73806998 1.81024551 71.62695694 C1.80654037 73.49534242 1.79930551 75.36372423 1.78853989 77.23208237 C1.77409406 79.84213739 1.77201914 82.45192337 1.77294922 85.06201172 C1.76575867 85.8402832 1.75856812 86.61855469 1.75115967 87.42041016 C1.61446706 91.67115987 1.61446706 91.67115987 4 95 C0.125 94.125 0.125 94.125 -1 93 C-1.10055113 90.14445419 -1.13615544 87.31305977 -1.12939453 84.45703125 C-1.13114685 83.56116302 -1.13289917 82.6652948 -1.13470459 81.74227905 C-1.13912447 78.76566663 -1.13618464 75.78911308 -1.1328125 72.8125 C-1.1334855 70.75366199 -1.13445549 68.69482406 -1.13571167 66.63598633 C-1.13718883 62.31493373 -1.13503351 57.99390177 -1.13037109 53.67285156 C-1.1246738 48.12063454 -1.12795271 42.56846586 -1.13394356 37.01625061 C-1.13754869 32.76305779 -1.13641081 28.50987651 -1.13381577 24.25668335 C-1.13314636 22.20885207 -1.13397538 20.16101977 -1.13629532 18.1131897 C-1.13882106 15.25642092 -1.13498236 12.39973157 -1.12939453 9.54296875 C-1.13141876 8.68786713 -1.13344299 7.8327655 -1.13552856 6.95175171 C-1.11426239 1.11426239 -1.11426239 1.11426239 0 0 Z " fill="#403F42" transform="translate(578,451)"/>
<path d="M0 0 C1.34111343 0.00539291 1.34111343 0.00539291 2.70932007 0.01089478 C3.64580887 0.01074875 4.58229767 0.01060272 5.54716492 0.01045227 C8.65845007 0.01115179 11.76967617 0.01894602 14.88095093 0.02676392 C17.0318651 0.02862796 19.18277971 0.03005192 21.33369446 0.03105164 C27.00711225 0.03487792 32.68050463 0.04470914 38.35391235 0.05575562 C44.13831234 0.06596736 49.92271641 0.07054875 55.7071228 0.07559204 C67.06585796 0.08633131 78.42457421 0.10340906 89.78329468 0.12442017 C87.78329468 2.12442017 87.78329468 2.12442017 84.17987061 2.33128357 C82.59364562 2.32179653 81.00746584 2.30116174 79.42147827 2.27212524 C78.55621521 2.26438583 77.69095215 2.25664642 76.79946899 2.24867249 C74.91584323 2.23098674 73.03225476 2.20892278 71.1487236 2.18305397 C68.16391335 2.14371658 65.17933564 2.11928703 62.19433594 2.09944153 C53.7056488 2.04133821 45.21730746 1.96449715 36.72909546 1.85708618 C31.53968574 1.79248011 26.35056255 1.75252917 21.16081619 1.727911 C19.18566609 1.71368317 17.21055969 1.69011705 15.23563766 1.65690041 C12.46389361 1.61095503 9.69355618 1.59638915 6.92147827 1.58853149 C5.70698502 1.55685379 5.70698502 1.55685379 4.46795654 1.52453613 C-0.94169789 1.55268769 -4.1310477 2.84425615 -8.49500084 6.04951 C-10.21670532 7.12442017 -10.21670532 7.12442017 -13.21670532 7.12442017 C-13.21670532 6.46442017 -13.21670532 5.80442017 -13.21670532 5.12442017 C-11.24948524 3.74318053 -9.24802204 2.40953891 -7.21670532 1.12442017 C-5.31693444 -0.77535072 -2.52731467 0.00429374 0 0 Z " fill="#F6E9FD" transform="translate(608.2167053222656,589.8755798339844)"/>
<path d="M0 0 C12.74305624 -0.04626362 25.48609262 -0.08183873 38.22921562 -0.10362434 C44.14584181 -0.11407834 50.0624107 -0.12826694 55.97900391 -0.15087891 C61.68481131 -0.17254975 67.39056347 -0.18455644 73.09640884 -0.18975449 C75.27739456 -0.19346062 77.45837713 -0.20069737 79.63933945 -0.21146011 C82.6852455 -0.22589852 85.73092091 -0.22798116 88.77685547 -0.22705078 C90.1406282 -0.23783661 90.1406282 -0.23783661 91.5319519 -0.24884033 C97.77189568 -0.22810432 97.77189568 -0.22810432 100 2 C99.67 2.99 99.34 3.98 99 5 C98.58760921 4.51322375 98.17521841 4.02644751 97.75033092 3.52492046 C95.64003277 1.68638994 94.75179818 1.6192928 91.9947052 1.60127258 C91.18282242 1.58873444 90.37093964 1.57619629 89.53445435 1.5632782 C88.64756927 1.56471329 87.7606842 1.56614838 86.84692383 1.56762695 C85.91014297 1.5574353 84.97336212 1.54724365 84.00819397 1.53674316 C80.90774632 1.50651724 77.80760712 1.49733251 74.70703125 1.48828125 C72.55896469 1.47144169 70.41090804 1.45329244 68.26286316 1.43388367 C62.60595797 1.38629909 56.9490929 1.3565444 51.29205322 1.33044434 C45.5207934 1.30068148 39.74967194 1.25413651 33.97851562 1.20898438 C22.652416 1.12285501 11.32628797 1.05555258 0 1 C0 0.67 0 0.34 0 0 Z " fill="#6D469B" transform="translate(603,575)"/>
<path d="M0 0 C3.40312384 1.9481651 5.35183347 3.3589065 7.21875 6.859375 C7.46625 7.9421875 7.46625 7.9421875 7.71875 9.046875 C4.55759224 7.67703997 3.7260408 7.0578112 1.71875 4.046875 C0.72875 3.716875 -0.26125 3.386875 -1.28125 3.046875 C-1.28125 2.386875 -1.28125 1.726875 -1.28125 1.046875 C-8.06630979 1.21964273 -12.97555883 2.70216361 -18.28125 7.046875 C-19.57185033 9.62807566 -19.41397333 11.54107329 -19.40625 14.421875 C-19.40882813 15.37835937 -19.41140625 16.33484375 -19.4140625 17.3203125 C-19.29676878 19.72828354 -18.96800951 21.74677568 -18.28125 24.046875 C-21.41350961 21.05080059 -22.45149698 19.20932257 -22.59375 14.859375 C-22.51625141 10.03896298 -21.47500528 6.69418133 -18.28125 3.046875 C-13.02978984 -1.55155384 -6.471976 -2.70404477 0 0 Z " fill="#7A5399" transform="translate(595.28125,565.953125)"/>
<path d="M0 0 C3.4375 0.875 3.4375 0.875 5.4375 3.875 C4.4475 4.535 3.4575 5.195 2.4375 5.875 C1.7775 6.535 1.1175 7.195 0.4375 7.875 C0.41441403 10.09628555 0.41441403 10.09628555 0.8125 12.5 C0.92335938 13.31726563 1.03421875 14.13453125 1.1484375 14.9765625 C1.24382812 15.60304688 1.33921875 16.22953125 1.4375 16.875 C0.82390625 17.01808594 0.2103125 17.16117187 -0.421875 17.30859375 C-2.66457767 17.9020096 -4.52279847 18.78230275 -6.5625 19.875 C-6.418125 19.359375 -6.27375 18.84375 -6.125 18.3125 C-4.61712993 12.06785734 -4.61712993 12.06785734 -5.5625 5.875 C-5.5625 5.545 -5.5625 5.215 -5.5625 4.875 C-5.8925 4.215 -6.2225 3.555 -6.5625 2.875 C-4.52251296 -0.12498094 -3.73399946 -0.13101752 0 0 Z " fill="#E7E7E8" transform="translate(506.5625,473.125)"/>
<path d="M0 0 C0.598125 0.474375 1.19625 0.94875 1.8125 1.4375 C4.00382924 3.16465744 4.00382924 3.16465744 7 4 C6.67 8.62 6.34 13.24 6 18 C5.67 18 5.34 18 5 18 C4.814375 16.2984375 4.814375 16.2984375 4.625 14.5625 C4.41875 13.386875 4.2125 12.21125 4 11 C3.34 10.67 2.68 10.34 2 10 C1.67 9.67 1.34 9.34 1 9 C0.67 10.65 0.34 12.3 0 14 C-0.99 14.33 -1.98 14.66 -3 15 C-3.66 14.67 -4.32 14.34 -5 14 C-3.45730076 9.27934033 -1.92205381 4.58335908 0 0 Z " fill="#D6D4D5" transform="translate(767,485)"/>
<path d="M0 0 C2.69791478 1.79860985 3.75496407 3.41583974 5.0625 6.375 C4.82521993 9.7760144 4.492966 10.944534 2.0625 13.375 C-0.3203125 13.5703125 -0.3203125 13.5703125 -3.0625 13.5 C-4.42761719 13.47292969 -4.42761719 13.47292969 -5.8203125 13.4453125 C-6.51898437 13.42210937 -7.21765625 13.39890625 -7.9375 13.375 C-7.9375 12.715 -7.9375 12.055 -7.9375 11.375 C-6.98875 11.2925 -6.04 11.21 -5.0625 11.125 C-1.83288209 10.72425077 -1.83288209 10.72425077 -0.5625 8.3125 C-0.253125 7.3534375 -0.253125 7.3534375 0.0625 6.375 C-0.5975 5.385 -1.2575 4.395 -1.9375 3.375 C-2.5975 2.385 -3.2575 1.395 -3.9375 0.375 C-1.9375 -0.625 -1.9375 -0.625 0 0 Z " fill="#333333" transform="translate(627.9375,533.625)"/>
<path d="M0 0 C0.66 0.66 1.32 1.32 2 2 C1.5985369 6.54991515 -0.35467581 10.77938576 -2 15 C-3.70840281 13.36587557 -4.93453047 12.13093906 -6 10 C-5.66015625 7.8359375 -5.66015625 7.8359375 -5.0625 5.375 C-4.86785156 4.55773437 -4.67320312 3.74046875 -4.47265625 2.8984375 C-4.23869141 1.95871094 -4.23869141 1.95871094 -4 1 C-3.01 1 -2.02 1 -1 1 C-0.67 0.67 -0.34 0.34 0 0 Z " fill="#E5E4E4" transform="translate(528,539)"/>
<path d="M0 0 C15.84 0 31.68 0 48 0 C48 0.33 48 0.66 48 1 C46.07752441 1.02187378 46.07752441 1.02187378 44.11621094 1.04418945 C39.35990535 1.1021732 34.60407315 1.17940633 29.84814453 1.26245117 C27.78995447 1.29570011 25.73167324 1.32373214 23.67333984 1.34643555 C20.71412309 1.3799819 17.75574183 1.43229802 14.796875 1.48828125 C13.41698395 1.49786613 13.41698395 1.49786613 12.00921631 1.50764465 C6.9595268 1.58733136 6.9595268 1.58733136 2.38769531 3.53198242 C1.92975586 4.01642822 1.47181641 4.50087402 1 5 C0.67 3.35 0.34 1.7 0 0 Z " fill="#DAD9DA" transform="translate(649,518)"/>
<path d="M0 0 C2.26979665 -0.10794277 4.54105196 -0.18556176 6.8125 -0.25 C8.07707031 -0.29640625 9.34164063 -0.3428125 10.64453125 -0.390625 C14 0 14 0 15.96875 1.78125 C17.48598709 5.04560859 16.72753116 7.5607618 16 11 C15.01 11 14.02 11 13 11 C11.875 5.375 11.875 5.375 13 2 C8.71 1.67 4.42 1.34 0 1 C0 0.67 0 0.34 0 0 Z " fill="#383839" transform="translate(486,478)"/>
<path d="M0 0 C0 4.445232 -1.36330049 7.17036125 -4.0625 10.6875 C-6.62672808 15.07150284 -6.80237271 19.00002963 -7 24 C-7.33 24 -7.66 24 -8 24 C-8.45525123 16.41247949 -8.51864702 10.35053094 -4 4 C-1.75 1.5 -1.75 1.5 0 0 Z " fill="#CFCFCF" transform="translate(297,495)"/>
<path d="M0 0 C0.99 0.495 0.99 0.495 2 1 C2 1.99 2 2.98 2 4 C5.0745356 3.2236068 5.0745356 3.2236068 7 1 C7.99 0.67 8.98 0.34 10 0 C10.33 1.32 10.66 2.64 11 4 C10.38125 4.2475 9.7625 4.495 9.125 4.75 C6.64931313 6.20628639 6.04874998 7.37812506 5 10 C4.34 10 3.68 10 3 10 C0.4606772 6.58168085 -0.3636198 4.24223102 0 0 Z " fill="#E3E1E2" transform="translate(695,486)"/>
<path d="M0 0 C0.98291016 0.00322266 1.96582031 0.00644531 2.97851562 0.00976562 C4.51475586 0.02233398 4.51475586 0.02233398 6.08203125 0.03515625 C7.63567383 0.04192383 7.63567383 0.04192383 9.22070312 0.04882812 C11.77870391 0.06061615 14.33658858 0.0770711 16.89453125 0.09765625 C16.89453125 0.42765625 16.89453125 0.75765625 16.89453125 1.09765625 C16.2897998 1.10176514 15.68506836 1.10587402 15.06201172 1.11010742 C12.29688776 1.14319573 9.5339231 1.21385249 6.76953125 1.28515625 C5.81820312 1.29095703 4.866875 1.29675781 3.88671875 1.30273438 C-2.68616468 1.50813698 -5.37531273 2.59590341 -10.10546875 7.09765625 C-11.09546875 6.76765625 -12.08546875 6.43765625 -13.10546875 6.09765625 C-8.72848844 1.48408241 -6.32892532 -0.03658338 0 0 Z " fill="#734BA5" transform="translate(607.10546875,587.90234375)"/>
<path d="M0 0 C2.631724 2.45627573 4.81527263 4.55352037 6 8 C5.8125 10.1875 5.8125 10.1875 5 12 C4.01 12.33 3.02 12.66 2 13 C1.34 12.01 0.68 11.02 0 10 C0.29369827 8.65737935 0.6278958 7.32303717 1 6 C0.67 5.01 0.34 4.02 0 3 C0 2.01 0 1.02 0 0 Z " fill="#E2E2E2" transform="translate(602,523)"/>
<path d="M0 0 C0.99 0.99 1.98 1.98 3 3 C2.01 5.97 1.02 8.94 0 12 C-1.77706209 9.33440687 -2.87548273 6.9719385 -4 4 C-2.66666667 2.66666667 -1.33333333 1.33333333 0 0 Z " fill="#DEDEE0" transform="translate(737,511)"/>
<path d="M0 0 C0.99 0.66 1.98 1.32 3 2 C2.33333333 4 1.66666667 6 1 8 C-1.86724686 7.42655063 -2.8614515 7.1385485 -5 5 C-5 4.01 -5 3.02 -5 2 C-2.6875 0.875 -2.6875 0.875 0 0 Z " fill="#262425" transform="translate(781,505)"/>
<path d="M0 0 C0.20086443 3.71599191 0.1519437 4.77208445 -2 8 C-4.125 8.6875 -4.125 8.6875 -6 9 C-6.33 7.35 -6.66 5.7 -7 4 C-2.25 0 -2.25 0 0 0 Z " fill="#E2E2E2" transform="translate(494,462)"/>
<path d="M0 0 C0.66 0.33 1.32 0.66 2 1 C1.29445932 4.66881155 -0.27735506 7.70450534 -2 11 C-1.34 11 -0.68 11 0 11 C0 11.99 0 12.98 0 14 C-0.99 14.33 -1.98 14.66 -3 15 C-3.66 14.67 -4.32 14.34 -5 14 C-3.45730076 9.27934033 -1.92205381 4.58335908 0 0 Z " fill="#E1E1E3" transform="translate(767,485)"/>
<path d="M0 0 C0.99 0.99 1.98 1.98 3 3 C2.01 5.31 1.02 7.62 0 10 C-2.50037734 7.82575883 -3.43628586 6.26954202 -4 3 C-3.34 3 -2.68 3 -2 3 C-1.67 2.34 -1.34 1.68 -1 1 C-0.67 0.67 -0.34 0.34 0 0 Z " fill="#E4E2E5" transform="translate(539,512)"/>
<path d="M0 0 C1.32 0.66 2.64 1.32 4 2 C1.72496963 5.41254555 -0.6184279 6.7456186 -4 9 C-4.8125 7.3125 -4.8125 7.3125 -5 5 C-2.5625 2.25 -2.5625 2.25 0 0 Z " fill="#E5E3E6" transform="translate(598,520)"/>
<path d="M0 0 C1.37478516 0.01740234 1.37478516 0.01740234 2.77734375 0.03515625 C3.69644531 0.04417969 4.61554687 0.05320312 5.5625 0.0625 C6.27277344 0.07410156 6.98304688 0.08570313 7.71484375 0.09765625 C8.04484375 0.75765625 8.37484375 1.41765625 8.71484375 2.09765625 C6.40484375 2.09765625 4.09484375 2.09765625 1.71484375 2.09765625 C1.38484375 2.75765625 1.05484375 3.41765625 0.71484375 4.09765625 C0.71484375 3.43765625 0.71484375 2.77765625 0.71484375 2.09765625 C0.05484375 2.09765625 -0.60515625 2.09765625 -1.28515625 2.09765625 C-1.28515625 2.75765625 -1.28515625 3.41765625 -1.28515625 4.09765625 C-1.94515625 4.09765625 -2.60515625 4.09765625 -3.28515625 4.09765625 C-3.28515625 4.75765625 -3.28515625 5.41765625 -3.28515625 6.09765625 C-3.94515625 6.09765625 -4.60515625 6.09765625 -5.28515625 6.09765625 C-2.98903326 0.12773646 -2.98903326 0.12773646 0 0 Z " fill="#424142" transform="translate(757.28515625,477.90234375)"/>
<path d="M0 0 C2 2 2 2 2 6 C1.071875 5.835 0.14375 5.67 -0.8125 5.5 C-3.95621353 4.92251612 -3.95621353 4.92251612 -7 5 C-4.69 3.35 -2.38 1.7 0 0 Z M-1 6 C-0.67 6.66 -0.34 7.32 0 8 C-0.66 7.67 -1.32 7.34 -2 7 C-1.67 6.67 -1.34 6.34 -1 6 Z " fill="#E1E1E1" transform="translate(229,493)"/>
<path d="M0 0 C0.66 0.33 1.32 0.66 2 1 C2.25532751 4.06393013 2.21861333 5.63233212 0.625 8.3125 C-0.179375 9.1478125 -0.179375 9.1478125 -1 10 C-1.66 10 -2.32 10 -3 10 C-3 6.28781401 -2.76691023 2.76691023 0 0 Z " fill="#303030" transform="translate(819,484)"/>
<path d="M0 0 C0.8125 1.625 0.8125 1.625 1 4 C-0.46818136 6.24609835 -2.15852858 8.02378677 -4 10 C-4.6875 8.3125 -4.6875 8.3125 -5 6 C-2.73846154 1.36923077 -2.73846154 1.36923077 0 0 Z " fill="#353335" transform="translate(630,481)"/>
<path d="M0 0 C2.93453261 0.36681658 3.86437246 0.86437246 6 3 C1.05 4.485 1.05 4.485 -4 6 C-2 2 -2 2 0 0 Z " fill="#E3E1E2" transform="translate(791,491)"/>
<path d="M0 0 C0.33 1.65 0.66 3.3 1 5 C0.4225 5.12375 -0.155 5.2475 -0.75 5.375 C-3.02335767 6.00648824 -4.9253529 6.88858191 -7 8 C-6.42415568 5.61435923 -5.77772405 3.33317216 -5 1 C-3 0 -3 0 0 0 Z " fill="#E0E0E2" transform="translate(507,485)"/>
<path d="M0 0 C0.33 0.99 0.66 1.98 1 3 C1.99 3 2.98 3 4 3 C4 2.34 4 1.68 4 1 C4.66 1.33 5.32 1.66 6 2 C6 3.32 6 4.64 6 6 C1.71 5.01 -2.58 4.02 -7 3 C-7 2.67 -7 2.34 -7 2 C-4.69 1.34 -2.38 0.68 0 0 Z " fill="#DDDBDC" transform="translate(810,475)"/>
<path d="M0 0 C0 0.66 0 1.32 0 2 C-1.45742463 2.08096803 -2.91612807 2.13917774 -4.375 2.1875 C-5.18710937 2.22230469 -5.99921875 2.25710938 -6.8359375 2.29296875 C-7.55007813 2.19628906 -8.26421875 2.09960938 -9 2 C-9.66 1.01 -10.32 0.02 -11 -1 C-3.57142857 -2.42857143 -3.57142857 -2.42857143 0 0 Z " fill="#3F3F40" transform="translate(532,571)"/>
<path d="M0 0 C0.33 0.66 0.66 1.32 1 2 C1.66 2 2.32 2 3 2 C2.34 4.97 1.68 7.94 1 11 C0.34 10.67 -0.32 10.34 -1 10 C-1.02689216 8.52093108 -1.04634621 7.04172517 -1.0625 5.5625 C-1.07410156 4.73878906 -1.08570313 3.91507812 -1.09765625 3.06640625 C-1 1 -1 1 0 0 Z " fill="#DDDDDD" transform="translate(218,507)"/>
<path d="M0 0 C0.33 0.66 0.66 1.32 1 2 C1.99 2 2.98 2 4 2 C3.34 4.31 2.68 6.62 2 9 C0.68 8.34 -0.64 7.68 -2 7 C-1.34 6.67 -0.68 6.34 0 6 C0 4.02 0 2.04 0 0 Z " fill="#2F2F31" transform="translate(732,561)"/>
<path d="M0 0 C2.97 0.495 2.97 0.495 6 1 C6.33 1.99 6.66 2.98 7 4 C7.66 4.66 8.32 5.32 9 6 C8.01 7.485 8.01 7.485 7 9 C5.83037314 7.69013727 4.66437056 6.3770374 3.5 5.0625 C2.8503125 4.33160156 2.200625 3.60070312 1.53125 2.84765625 C0 1 0 1 0 0 Z " fill="#E2E0E2" transform="translate(444,480)"/>
<path d="M0 0 C2.09715785 3.14573677 2.52004559 5.01456251 3.125 8.6875 C3.29257812 9.68136719 3.46015625 10.67523437 3.6328125 11.69921875 C3.75398437 12.45847656 3.87515625 13.21773437 4 14 C0.05536417 10.22687008 0.05536417 10.22687008 -0.09765625 6.8359375 C-0.08605469 6.02382813 -0.07445312 5.21171875 -0.0625 4.375 C-0.05347656 3.55773437 -0.04445313 2.74046875 -0.03515625 1.8984375 C-0.02355469 1.27195312 -0.01195312 0.64546875 0 0 Z " fill="#815AA1" transform="translate(573,576)"/>
<path d="M0 0 C0.99 0.33 1.98 0.66 3 1 C3 3.64 3 6.28 3 9 C1.68 9 0.36 9 -1 9 C-0.67 6.03 -0.34 3.06 0 0 Z " fill="#E3E3E3" transform="translate(820,484)"/>
<path d="M0 0 C1.62418745 -0.08090971 3.24951745 -0.13914995 4.875 -0.1875 C5.77992188 -0.22230469 6.68484375 -0.25710938 7.6171875 -0.29296875 C8.79667969 -0.14794922 8.79667969 -0.14794922 10 0 C10.66 0.99 11.32 1.98 12 3 C11.01 3.33 10.02 3.66 9 4 C8.67 4.66 8.34 5.32 8 6 C7.67 4.35 7.34 2.7 7 1 C4.69 1 2.38 1 0 1 C0 0.67 0 0.34 0 0 Z " fill="#474548" transform="translate(580,448)"/>
<path d="M0 0 C3.67420866 0.30618405 4.78135513 0.75771784 7.3125 3.5625 C8.1478125 4.7690625 8.1478125 4.7690625 9 6 C8.67 6.66 8.34 7.32 8 8 C7.236875 7.195625 6.47375 6.39125 5.6875 5.5625 C3.20569102 2.83200976 3.20569102 2.83200976 0 2 C0 1.34 0 0.68 0 0 Z " fill="#7E59A0" transform="translate(594,567)"/>
<path d="M0 0 C0.33 0 0.66 0 1 0 C1.66 3.96 2.32 7.92 3 12 C0.525 11.01 0.525 11.01 -2 10 C-1.34 6.7 -0.68 3.4 0 0 Z " fill="#E3E2E3" transform="translate(470,536)"/>
<path d="M0 0 C2.97 0 5.94 0 9 0 C9 0.66 9 1.32 9 2 C5.7 2.33 2.4 2.66 -1 3 C-0.67 2.01 -0.34 1.02 0 0 Z " fill="#F0DEFA" transform="translate(583,563)"/>
<path d="M0 0 C0 0.66 0 1.32 0 2 C-1.98 2.66 -3.96 3.32 -6 4 C-6.33 2.68 -6.66 1.36 -7 0 C-4.3333581 -1.33332095 -2.83319697 -0.67102033 0 0 Z " fill="#232325" transform="translate(735,539)"/>
<path d="M0 0 C1.98 0.66 3.96 1.32 6 2 C5.01 2.99 4.02 3.98 3 5 C1.02 4.34 -0.96 3.68 -3 3 C-2.01 2.67 -1.02 2.34 0 2 C0 1.34 0 0.68 0 0 Z " fill="#DAD8D9" transform="translate(809,505)"/>
<path d="M0 0 C1.9375 0.3125 1.9375 0.3125 4 1 C4.33 1.99 4.66 2.98 5 4 C2.525 5.485 2.525 5.485 0 7 C0 4.69 0 2.38 0 0 Z " fill="#E2E1E1" transform="translate(370,476)"/>
<path d="M0 0 C1.9375 0.375 1.9375 0.375 4 1 C4.33 1.66 4.66 2.32 5 3 C4.01 4.485 4.01 4.485 3 6 C2.34 6 1.68 6 1 6 C0.67 4.02 0.34 2.04 0 0 Z " fill="#E4E2E3" transform="translate(722,544)"/>
<path d="M0 0 C0.33 1.65 0.66 3.3 1 5 C0.34 5 -0.32 5 -1 5 C-1.66 5.66 -2.32 6.32 -3 7 C-3.66 5.02 -4.32 3.04 -5 1 C-2 0 -2 0 0 0 Z " fill="#E6E4E5" transform="translate(726,485)"/>
<path d="M0 0 C0.99 0.66 1.98 1.32 3 2 C1.515 4.475 1.515 4.475 0 7 C-0.66 6.67 -1.32 6.34 -2 6 C-1.125 1.125 -1.125 1.125 0 0 Z " fill="#333334" transform="translate(508,479)"/>
<path d="M0 0 C2.3125 0.1875 2.3125 0.1875 4 1 C-0.39453125 5.00390625 -0.39453125 5.00390625 -2 6 C-2.99 5.67 -3.98 5.34 -5 5 C-2.75 2.4375 -2.75 2.4375 0 0 Z " fill="#7F5A9F" transform="translate(599,589)"/>
<path d="M0 0 C0.75 1.75 0.75 1.75 1 4 C-0.9375 6.25 -0.9375 6.25 -3 8 C-3.33 6.68 -3.66 5.36 -4 4 C-3.34 4 -2.68 4 -2 4 C-2 3.34 -2 2.68 -2 2 C-1.34 2 -0.68 2 0 2 C0 1.34 0 0.68 0 0 Z " fill="#78539B" transform="translate(703,581)"/>
<path d="M0 0 C1.98 1.65 3.96 3.3 6 5 C4.02 5.99 4.02 5.99 2 7 C0.5393715 4.35261084 0 3.10551666 0 0 Z " fill="#302E31" transform="translate(650,524)"/>
<path d="M0 0 C1.98 0.99 1.98 0.99 4 2 C4 2.99 4 3.98 4 5 C3.34 5.66 2.68 6.32 2 7 C2 6.01 2 5.02 2 4 C1.34 4 0.68 4 0 4 C0 2.68 0 1.36 0 0 Z " fill="#E5E3E4" transform="translate(802,521)"/>
<path d="M0 0 C0.66 0.33 1.32 0.66 2 1 C1.37240135 3.92879371 0.41377341 6.36095629 -1 9 C-1.66 9 -2.32 9 -3 9 C-2.01 6.03 -1.02 3.06 0 0 Z " fill="#DCDADD" transform="translate(767,485)"/>
<path d="M0 0 C0.93065133 2.60582371 1.14917407 3.64198224 0.0625 6.25 C-0.4634375 7.11625 -0.4634375 7.11625 -1 8 C-1.33 7.34 -1.66 6.68 -2 6 C-2.66 5.67 -3.32 5.34 -4 5 C-2.68 3.35 -1.36 1.7 0 0 Z " fill="#D9D7D8" transform="translate(340,531)"/>
<path d="M0 0 C0.99 1.32 1.98 2.64 3 4 C2.01 4.99 1.02 5.98 0 7 C-0.66 5.35 -1.32 3.7 -2 2 C-1.34 1.34 -0.68 0.68 0 0 Z " fill="#DAD8D9" transform="translate(612,505)"/>
<path d="M0 0 C0.33 0 0.66 0 1 0 C1 3.3 1 6.6 1 10 C0.01 9.67 -0.98 9.34 -2 9 C-1.855625 8.443125 -1.71125 7.88625 -1.5625 7.3125 C-0.97230872 4.88615805 -0.476571 2.45093655 0 0 Z " fill="#CECCCD" transform="translate(460,482)"/>
</svg>
